<?xml version="1.0" encoding="UTF-8" standalone="no"?><svg xmlns="http://www.w3.org/2000/svg" xmlns:xlink="http://www.w3.org/1999/xlink" contentStyleType="text/css" height="159px" preserveAspectRatio="none" style="width:545px;height:159px;background:#FFFFFF;" version="1.1" viewBox="0 0 545 159" width="545px" zoomAndPan="magnify"><defs/><g><!--MD5=[72136138052d025cffdce3c22fbd185f]
class Product--><g id="elem_Product"><rect codeLine="1" fill="#F1F1F1" height="145.7813" id="Product" rx="2.5" ry="2.5" style="stroke:#181818;stroke-width:0.5;" width="209" x="329" y="7"/><ellipse cx="402.25" cy="23" fill="#ADD1B2" rx="11" ry="11" style="stroke:#181818;stroke-width:1.0;"/><path d="M405.2188,28.6406 Q404.6406,28.9375 404,29.0781 Q403.3594,29.2344 402.6563,29.2344 Q400.1563,29.2344 398.8281,27.5938 Q397.5156,25.9375 397.5156,22.8125 Q397.5156,19.6875 398.8281,18.0313 Q400.1563,16.375 402.6563,16.375 Q403.3594,16.375 404,16.5313 Q404.6563,16.6875 405.2188,16.9844 L405.2188,19.7031 Q404.5938,19.125 404,18.8594 Q403.4063,18.5781 402.7813,18.5781 Q401.4375,18.5781 400.75,19.6563 Q400.0625,20.7188 400.0625,22.8125 Q400.0625,24.9063 400.75,25.9844 Q401.4375,27.0469 402.7813,27.0469 Q403.4063,27.0469 404,26.7813 Q404.5938,26.5 405.2188,25.9219 L405.2188,28.6406 Z " fill="#000000"/><text fill="#000000" font-family="sans-serif" font-size="14" lengthAdjust="spacing" textLength="54" x="422.75" y="27.8467">Product</text><line style="stroke:#181818;stroke-width:0.5;" x1="330" x2="537" y1="39" y2="39"/><rect fill="none" height="6" style="stroke:#C82930;stroke-width:1.0;" width="6" x="337" y="49.6484"/><text fill="#000000" font-family="sans-serif" font-size="14" lengthAdjust="spacing" textLength="64" x="349" y="55.9951">stock: int</text><rect fill="none" height="6" style="stroke:#C82930;stroke-width:1.0;" width="6" x="337" y="65.9453"/><text fill="#000000" font-family="sans-serif" font-size="14" lengthAdjust="spacing" textLength="129" x="349" y="72.292">creationDate: date</text><line style="stroke:#181818;stroke-width:0.5;" x1="330" x2="537" y1="79.5938" y2="79.5938"/><rect fill="#F24D5C" height="6" style="stroke:#C82930;stroke-width:1.0;" width="6" x="337" y="90.2422"/><text fill="#000000" font-family="sans-serif" font-size="14" lengthAdjust="spacing" textLength="70" x="349" y="96.5889">id (PK): int</text><rect fill="#F24D5C" height="6" style="stroke:#C82930;stroke-width:1.0;" width="6" x="337" y="106.5391"/><text fill="#000000" font-family="sans-serif" font-size="14" lengthAdjust="spacing" textLength="115" x="349" y="112.8857">name: char(100)</text><rect fill="#F24D5C" height="6" style="stroke:#C82930;stroke-width:1.0;" width="6" x="337" y="122.8359"/><text fill="#000000" font-family="sans-serif" font-size="14" lengthAdjust="spacing" textLength="141" x="349" y="129.1826">price: decimal(10, 2)</text><rect fill="#F24D5C" height="6" style="stroke:#C82930;stroke-width:1.0;" width="6" x="337" y="139.1328"/><text fill="#000000" font-family="sans-serif" font-size="14" lengthAdjust="spacing" textLength="183" x="349" y="145.4795">category (FK): categoria_id</text></g><!--MD5=[a96594a83e2ecdc78cbf17c2ddf01934]
class Category--><g id="elem_Category"><rect codeLine="10" fill="#F1F1F1" height="80.5938" id="Category" rx="2.5" ry="2.5" style="stroke:#181818;stroke-width:0.5;" width="141" x="7" y="39.5"/><ellipse cx="43.15" cy="55.5" fill="#ADD1B2" rx="11" ry="11" style="stroke:#181818;stroke-width:1.0;"/><path d="M46.1188,61.1406 Q45.5406,61.4375 44.9,61.5781 Q44.2594,61.7344 43.5563,61.7344 Q41.0563,61.7344 39.7281,60.0938 Q38.4156,58.4375 38.4156,55.3125 Q38.4156,52.1875 39.7281,50.5313 Q41.0563,48.875 43.5563,48.875 Q44.2594,48.875 44.9,49.0313 Q45.5563,49.1875 46.1188,49.4844 L46.1188,52.2031 Q45.4938,51.625 44.9,51.3594 Q44.3063,51.0781 43.6813,51.0781 Q42.3375,51.0781 41.65,52.1563 Q40.9625,53.2188 40.9625,55.3125 Q40.9625,57.4063 41.65,58.4844 Q42.3375,59.5469 43.6813,59.5469 Q44.3063,59.5469 44.9,59.2813 Q45.4938,59 46.1188,58.4219 L46.1188,61.1406 Z " fill="#000000"/><text fill="#000000" font-family="sans-serif" font-size="14" lengthAdjust="spacing" textLength="62" x="61.85" y="60.3467">Category</text><line style="stroke:#181818;stroke-width:0.5;" x1="8" x2="147" y1="71.5" y2="71.5"/><line style="stroke:#181818;stroke-width:0.5;" x1="8" x2="147" y1="79.5" y2="79.5"/><rect fill="#F24D5C" height="6" style="stroke:#C82930;stroke-width:1.0;" width="6" x="15" y="90.1484"/><text fill="#000000" font-family="sans-serif" font-size="14" lengthAdjust="spacing" textLength="70" x="27" y="96.4951">id (PK): int</text><rect fill="#F24D5C" height="6" style="stroke:#C82930;stroke-width:1.0;" width="6" x="15" y="106.4453"/><text fill="#000000" font-family="sans-serif" font-size="14" lengthAdjust="spacing" textLength="115" x="27" y="112.792">name: char(100)</text></g><!--MD5=[628e913ff14b9ac597ffc0eab88125e8]
reverse link Category to Product--><g id="link_Category_Product"><path codeLine="16" d="M161.33,80 C211.39,80 275.41,80 328.79,80 " fill="none" id="Category-backto-Product" style="stroke:#181818;stroke-width:1.0;"/><polygon fill="#181818" points="148.26,80,154.26,84,160.26,80,154.26,76,148.26,80" style="stroke:#181818;stroke-width:1.0;"/><text fill="#000000" font-family="sans-serif" font-size="13" lengthAdjust="spacing" textLength="144" x="166.5" y="73.0669">1 category, n products</text></g><!--MD5=[8df83c83ea471da3b0b8a9b465e21d84]
@startuml
class Product {
    - id (PK): int
    - name: char(100)
    - stock: int
    - price: decimal(10, 2)
    - creationDate: date
    - category (FK): categoria_id
}

class Category {
    - id (PK): int
    - name: char(100)
}


Category *- Product: 1 category, n products
@enduml

PlantUML version 1.2022.7(Mon Aug 22 17:01:30 UTC 2022)
(GPL source distribution)
Java Runtime: OpenJDK Runtime Environment
JVM: OpenJDK 64-Bit Server VM
Default Encoding: UTF-8
Language: en
Country: null
--></g></svg>